<?xml version="1.0" encoding="UTF-8" standalone="no"?>
<svg
   width="40"
   height="40"
   viewBox="0 0 40 40"
   version="1.1"
   id="svg3"
   sodipodi:docname="toolbar_close.svg"
   inkscape:version="1.3.2 (091e20e, 2023-11-25, custom)"
   xmlns:inkscape="http://www.inkscape.org/namespaces/inkscape"
   xmlns:sodipodi="http://sodipodi.sourceforge.net/DTD/sodipodi-0.dtd"
   xmlns="http://www.w3.org/2000/svg"
   xmlns:svg="http://www.w3.org/2000/svg">
  <defs
     id="defs3" />
  <sodipodi:namedview
     id="namedview3"
     pagecolor="#ffffff"
     bordercolor="#000000"
     borderopacity="0.25"
     inkscape:showpageshadow="2"
     inkscape:pageopacity="0.0"
     inkscape:pagecheckerboard="0"
     inkscape:deskcolor="#d1d1d1"
     inkscape:zoom="22.627417"
     inkscape:cx="17.434602"
     inkscape:cy="18.185902"
     inkscape:window-width="2560"
     inkscape:window-height="1369"
     inkscape:window-x="-8"
     inkscape:window-y="658"
     inkscape:window-maximized="1"
     inkscape:current-layer="svg3" />
  <path
     d="M34.923,10.25a.392.392,0,0,0-.033-.05.5.5,0,0,0-.2-.162l0,0-15-6a.5.5,0,0,0-.372,0l-15,6,0,0a.5.5,0,0,0-.2.162.392.392,0,0,0-.033.05A.478.478,0,0,0,4,10.5v18a.464.464,0,0,0,.028.138.429.429,0,0,0,.011.054l.01.015a.51.51,0,0,0,.1.144l.008,0a.5.5,0,0,0,.156.1l0,0,14.989,6,0,0,.006,0a.5.5,0,0,0,.372,0l.006,0,0,0,1.989-.8a.5.5,0,0,0-.372-.928L20,33.762V16.839l14-5.6V21.5a.5.5,0,0,0,1,0v-11A.481.481,0,0,0,34.923,10.25ZM19,33.762l-14-5.6V11.239l14,5.6Zm.5-17.8L5.846,10.5,19.5,5.039,33.153,10.5Z"
     style="fill:#2b3436"
     id="path1" />
  <path
     d="M33.5,24h-8A1.5,1.5,0,0,0,24,25.5v8A1.5,1.5,0,0,0,25.5,35h8A1.5,1.5,0,0,0,35,33.5v-8A1.5,1.5,0,0,0,33.5,24Zm.5,9.5a.5.5,0,0,1-.5.5h-8a.5.5,0,0,1-.5-.5v-8a.5.5,0,0,1,.5-.5h8a.5.5,0,0,1,.5.5Z"
     style="fill:#94D1B0"
     id="path2" />
  <path
     id="path3"
     style="fill:#94D1B0"
     d="m 29.154297,26.15625 a 0.5,0.5 0 0 0 -0.04102,0.04102 c 0.0027,0.0011 0.0051,0.0028 0.0078,0.0039 0.0033,-5.25e-4 0.0065,-0.0014 0.0098,-0.002 0.0039,-7.16e-4 0.0078,-0.0013 0.01172,-0.002 1.79e-4,-0.0013 -3.07e-4,-0.0026 0,-0.0039 0.003,-0.01277 0.0074,-0.02499 0.01172,-0.03711 z m -0.04297,2.835938 c -0.0046,5.51e-4 -0.009,0.0015 -0.01367,0.002 -0.01183,0.0013 -0.02331,9.35e-4 -0.03516,0.002 -0.0099,7e-4 -0.0194,0.0011 -0.0293,0.002 -0.0093,8.29e-4 -0.01642,-4.16e-4 -0.02344,-0.002 -5.98e-4,-1.31e-4 -0.0014,1.43e-4 -0.002,0 -0.0026,-2.8e-5 -0.0052,-2.39e-4 -0.0078,0 V 29 h -2.5 a 0.5,0.5 0 0 0 0,1 H 29 v 0.0078 c 0.0098,-7.6e-5 0.01958,0.0012 0.0293,0.002 0.01754,7.69e-4 0.03322,0.0018 0.05078,0.002 0.02494,6e-4 0.05125,-8.59e-4 0.07617,-0.002 0.02569,-0.0011 0.05046,-0.0017 0.07617,-0.002 0.02645,-2.21e-4 0.05363,6.3e-5 0.08008,0 0.02492,-4.9e-5 0.0493,8e-6 0.07422,0 0.03359,-4e-6 0.06797,2e-6 0.101562,0 0.03226,6e-4 0.06344,0.0012 0.0957,0.002 0.01234,2.77e-4 0.02474,-3.22e-4 0.03711,0 0.02865,-1.35e-4 0.0573,1.6e-4 0.08594,0 0.03936,-4.5e-4 0.07986,-0.0024 0.119141,-0.002 0.02619,2.84e-4 0.05213,0.0023 0.07813,0.0039 0.0026,1.65e-4 0.0052,-1.72e-4 0.0078,0 0.0056,-0.004 0.01283,-0.0081 0.02148,-0.0098 0.0074,-0.0014 0.01577,-9.37e-4 0.02539,0 0.0067,6e-4 0.01283,0.0018 0.01953,0.002 0.0067,4e-6 0.0145,-1.84e-4 0.02148,0 V 30 h 2.5 a 0.5,0.5 0 0 0 0,-1 H 30 v -0.0078 c -0.01424,6e-5 -0.02873,10e-6 -0.04297,0 -0.002,4.6e-5 -0.0039,2.8e-5 -0.0059,0 -0.02565,1.8e-5 -0.05052,-3e-6 -0.07617,0 -0.03672,1e-6 -0.07461,-10e-7 -0.111328,0 h -0.08203 -0.04492 c -0.0013,5.8e-5 -0.0026,-5.9e-5 -0.0039,0 -0.03058,0.0014 -0.06124,0.0038 -0.0918,0.0059 -0.02731,0.0017 -0.05466,0.0025 -0.08203,0.002 -0.02043,-1.6e-5 -0.04012,9.3e-5 -0.06055,0 -0.01666,-9.1e-5 -0.03413,4.68e-4 -0.05078,0 -0.018,-5e-4 -0.03474,-0.0029 -0.05273,-0.0039 -0.02195,-9.85e-4 -0.04444,-8.8e-5 -0.06641,0 h -0.08008 c -0.0089,0 -0.01671,-0.0017 -0.02344,-0.0039 -0.0045,4.43e-4 -0.0092,-5.44e-4 -0.01367,0 z" />
</svg>
