<?xml version="1.0" encoding="UTF-8" standalone="no"?>
<svg
   width="40"
   height="40"
   viewBox="0 0 40 40"
   version="1.1"
   id="svg3"
   sodipodi:docname="toolbar_close_dark.svg"
   inkscape:version="1.3.2 (091e20e, 2023-11-25, custom)"
   xmlns:inkscape="http://www.inkscape.org/namespaces/inkscape"
   xmlns:sodipodi="http://sodipodi.sourceforge.net/DTD/sodipodi-0.dtd"
   xmlns="http://www.w3.org/2000/svg"
   xmlns:svg="http://www.w3.org/2000/svg">
  <defs
     id="defs3" />
  <sodipodi:namedview
     id="namedview3"
     pagecolor="#ffffff"
     bordercolor="#000000"
     borderopacity="0.25"
     inkscape:showpageshadow="2"
     inkscape:pageopacity="0.0"
     inkscape:pagecheckerboard="0"
     inkscape:deskcolor="#d1d1d1"
     inkscape:zoom="32"
     inkscape:cx="21.046875"
     inkscape:cy="39.015625"
     inkscape:window-width="2560"
     inkscape:window-height="1369"
     inkscape:window-x="-8"
     inkscape:window-y="658"
     inkscape:window-maximized="1"
     inkscape:current-layer="svg3" />
  <path
     d="M34.923,10.25a.392.392,0,0,0-.033-.05.5.5,0,0,0-.2-.162l0,0-15-6a.5.5,0,0,0-.372,0l-15,6,0,0a.5.5,0,0,0-.2.162.392.392,0,0,0-.033.05A.478.478,0,0,0,4,10.5v18a.464.464,0,0,0,.028.138.429.429,0,0,0,.011.054l.01.015a.51.51,0,0,0,.1.144l.008,0a.5.5,0,0,0,.156.1l0,0,14.989,6,0,0,.006,0a.5.5,0,0,0,.372,0l.006,0,0,0,1.989-.8a.5.5,0,0,0-.372-.928L20,33.762V16.839l14-5.6V21.5a.5.5,0,0,0,1,0v-11A.481.481,0,0,0,34.923,10.25ZM19,33.762l-14-5.6V11.239l14,5.6Zm.5-17.8L5.846,10.5,19.5,5.039,33.153,10.5Z"
     style="fill:#b6b6b6"
     id="path1" />
  <path
     d="M33.5,24h-8A1.5,1.5,0,0,0,24,25.5v8A1.5,1.5,0,0,0,25.5,35h8A1.5,1.5,0,0,0,35,33.5v-8A1.5,1.5,0,0,0,33.5,24Zm.5,9.5a.5.5,0,0,1-.5.5h-8a.5.5,0,0,1-.5-.5v-8a.5.5,0,0,1,.5-.5h8a.5.5,0,0,1,.5.5Z"
     style="fill:#94D1B0"
     id="path2" />
  <path
     id="path3"
     style="fill:#94D1B0"
     d="m 29.910156,26.292969 c -0.0076,5.12e-4 -0.01454,0.0043 -0.02148,0.0078 -2.15e-4,0.0013 -0.0017,0.0026 -0.002,0.0039 0.02581,0.0053 0.05265,0.01062 0.07813,0.01758 a 0.5,0.5 0 0 0 -0.01367,-0.02344 c -0.01331,-0.004 -0.02723,-0.0068 -0.04102,-0.0059 z m -0.646484,2.691406 c -0.01654,9e-4 -0.03423,0.0013 -0.05078,0.002 -0.01618,5.76e-4 -0.03068,0.0018 -0.04687,0.002 -0.01515,7e-4 -0.03173,0.0011 -0.04687,0.002 -0.0098,0.0015 -0.0194,0.0031 -0.0293,0.0039 -0.01209,9e-4 -0.02306,0.0029 -0.03516,0.0039 -0.01209,5e-4 -0.02507,8.06e-4 -0.03711,0.002 -0.01884,0.0018 -0.03782,0.0057 -0.05664,0.0078 -0.0031,3.06e-4 -0.0047,-3.04e-4 -0.0078,0 -0.02025,0.002 -0.03635,-9.59e-4 -0.04687,-0.0078 H 26.5 a 0.5,0.5 0 0 0 0,1 h 2.421875 c 0.0071,-6.56e-4 0.01421,-0.0014 0.02148,-0.002 0.01543,-9.65e-4 0.03139,-0.0023 0.04687,-0.002 0.01619,-1.34e-4 0.03265,-0.0015 0.04883,-0.002 0.01674,-6e-4 0.03407,-7.63e-4 0.05078,-0.002 0.0189,-7.37e-4 0.03773,1.47e-4 0.05664,0 h 0.06445 0.06445 0.07422 0.07422 c 0.01995,-10e-7 0.0406,-2e-6 0.06055,0 0.01824,0 0.03645,-10e-6 0.05469,0 0.01916,7e-6 0.03748,-7.7e-5 0.05664,0 0.01823,8.1e-5 0.03647,-3.38e-4 0.05469,0 0.02359,4.96e-4 0.04872,0.0023 0.07227,0.0039 0.01645,0.0013 0.03236,0.0029 0.04883,0.0039 0.01726,9.06e-4 0.0335,-3.64e-4 0.05078,0 0.02022,0 0.04228,-3e-6 0.0625,0 0.01913,3e-6 0.03751,-1.9e-5 0.05664,0 0.01267,1.9e-5 0.02444,-1.1e-4 0.03711,0 0.0071,7.4e-5 0.01433,-4.93e-4 0.02148,0 h 2.5 a 0.5,0.5 0 0 0 0,-1 H 30 v -0.0059 c -0.01847,0.0019 -0.03593,0.0032 -0.05469,0.0039 -0.0218,7e-4 -0.04462,0.0029 -0.06641,0.0039 -0.01928,4e-4 -0.03741,0.0026 -0.05664,0.0039 -0.02017,0.0012 -0.04034,0.0022 -0.06055,0.002 -0.02533,-0.0012 -0.05093,-0.0054 -0.07617,-0.0078 -0.02051,-0.0014 -0.04203,-0.0021 -0.0625,-0.0039 -0.01535,-0.0014 -0.02953,-0.0035 -0.04492,-0.0039 -0.01989,-4e-4 -0.04066,5.9e-5 -0.06055,0 -0.04045,-8.3e-5 -0.08063,8e-6 -0.121094,0 -0.0311,-6e-6 -0.06265,0 -0.09375,0 -0.0145,-2e-6 -0.02609,-0.0033 -0.03516,-0.0078 -0.0013,3.4e-5 -0.0026,-5e-5 -0.0039,0 z m -0.25,1.125 c -0.0046,2.02e-4 -0.0091,0.0019 -0.01367,0.002 v 0.002 c 0.0056,-0.0014 0.0082,-0.0025 0.01367,-0.0039 z m 0.640625,0.439453 c -0.01289,0.0043 -0.02487,0.0095 -0.03711,0.01367 0.01084,-0.0023 0.02104,-0.005 0.03906,-0.01172 z" />
</svg>
