<?xml version="1.0" encoding="UTF-8" standalone="no"?>
<svg
   width="40"
   height="40"
   viewBox="0 0 40 40"
   version="1.1"
   id="svg3"
   sodipodi:docname="toolbar_open_dark.svg"
   inkscape:version="1.3.2 (091e20e, 2023-11-25, custom)"
   xmlns:inkscape="http://www.inkscape.org/namespaces/inkscape"
   xmlns:sodipodi="http://sodipodi.sourceforge.net/DTD/sodipodi-0.dtd"
   xmlns="http://www.w3.org/2000/svg"
   xmlns:svg="http://www.w3.org/2000/svg">
  <defs
     id="defs3" />
  <sodipodi:namedview
     id="namedview3"
     pagecolor="#ffffff"
     bordercolor="#000000"
     borderopacity="0.25"
     inkscape:showpageshadow="2"
     inkscape:pageopacity="0.0"
     inkscape:pagecheckerboard="0"
     inkscape:deskcolor="#d1d1d1"
     inkscape:zoom="22.627417"
     inkscape:cx="17.125242"
     inkscape:cy="30.86963"
     inkscape:window-width="2560"
     inkscape:window-height="1369"
     inkscape:window-x="-8"
     inkscape:window-y="658"
     inkscape:window-maximized="1"
     inkscape:current-layer="svg3" />
  <path
     d="M34.923,10.25a.392.392,0,0,0-.033-.05.5.5,0,0,0-.2-.162l0,0-15-6a.5.5,0,0,0-.372,0l-15,6,0,0a.5.5,0,0,0-.2.162.392.392,0,0,0-.033.05A.478.478,0,0,0,4,10.5v18a.464.464,0,0,0,.028.138.429.429,0,0,0,.011.054l.01.015a.51.51,0,0,0,.1.144l.008,0a.5.5,0,0,0,.156.1l0,0,14.989,6,0,0,.006,0a.5.5,0,0,0,.372,0l.006,0,0,0,1.989-.8a.5.5,0,0,0-.372-.928L20,33.762V16.839l14-5.6V21.5a.5.5,0,0,0,1,0v-11A.481.481,0,0,0,34.923,10.25ZM19,33.762l-14-5.6V11.239l14,5.6Zm.5-17.8L5.846,10.5,19.5,5.039,33.153,10.5Z"
     style="fill:#b6b6b6"
     id="path1" />
  <path
     d="M33.5,24h-8A1.5,1.5,0,0,0,24,25.5v8A1.5,1.5,0,0,0,25.5,35h8A1.5,1.5,0,0,0,35,33.5v-8A1.5,1.5,0,0,0,33.5,24Zm.5,9.5a.5.5,0,0,1-.5.5h-8a.5.5,0,0,1-.5-.5v-8a.5.5,0,0,1,.5-.5h8a.5.5,0,0,1,.5.5Z"
     style="fill:#94D1B0"
     id="path2" />
  <path
     d="M32.5,29H30V26.5a.5.5,0,0,0-1,0V29H26.5a.5.5,0,0,0,0,1H29v2.5a.5.5,0,0,0,1,0V30h2.5a.5.5,0,0,0,0-1Z"
     style="fill:#94D1B0"
     id="path3" />
</svg>
