<?xml version="1.0" encoding="UTF-8"?>
<svg id="Layer_2" data-name="Layer 2" xmlns="http://www.w3.org/2000/svg" viewBox="0 0 128 128">
  <defs>
    <style>
      .cls-1 {
        stroke-width: 0px;
      }

      .cls-1, .cls-2 {
        fill: #b2b3b3;
      }
    </style>
  </defs>
  <g>
    <polygon class="cls-1" points="45.53 65.09 45.54 48.52 39.64 45.78 39.67 69.82 45.53 65.09" style="fill: #b2b3b3;"/>
    <g>
      <polygon class="cls-1" points="48.33 82.39 49.89 83.13 76.05 62.83 70.29 60.12 48.32 77.06 48.33 82.39" style="fill: #b2b3b3;"/>
      <polygon class="cls-1" points="48.26 49.8 48.3 66.27 39.64 73.16 39.65 78.5 41.21 79.23 67.37 58.93 61.39 56.12 54.18 61.72 54.18 52.54 48.26 49.8" style="fill: #b2b3b3;"/>
    </g>
  </g>
  <path class="cls-2" d="M80.45,88.79c0-.97.79-1.76,1.76-1.76s1.76.79,1.76,1.76v.73h2.34v1.17h-5.86v-1.9ZM82.8,88.79c0-.32-.26-.59-.59-.59s-.59.27-.59.59v.73h1.18v-.73ZM80.45,82.12l5.86-2.77v1.3l-3.56,1.67,3.56,1.81v1.31l-5.86-2.98v-.34ZM86.31,72.64l-3.42,3.29h3.42v1.17h-5.86v-.37l3.28-3.23h-3.28v-1.17h5.86v.31ZM80.45,65.27h1.17v1.62h4.69v1.17h-4.69v1.63h-1.17v-4.42ZM80.46,59.3v-1.17h5.85v1.17h-2.44v2.17h2.44v1.17h-5.85v-1.17h2.24v-2.17h-2.24ZM81.62,51.55v3.9h-1.17v-3.9h1.17ZM82.71,55.46v-3.23h1.17v3.23h-1.17ZM85.14,55.46v-3.88h1.17v3.88h-1.17ZM83.38,42.81c1.67,0,3.03,1.36,3.03,3.03s-1.36,3.03-3.03,3.03-3.03-1.36-3.03-3.03,1.36-3.03,3.03-3.03ZM83.38,47.68c1.01,0,1.83-.82,1.83-1.83s-.82-1.83-1.83-1.83-1.83.82-1.83,1.83.82,1.83,1.83,1.83ZM86.31,35.67l-3.42,3.29h3.42v1.17h-5.86v-.37l3.28-3.23h-3.28v-1.17h5.86v.31Z" style="fill: #b2b3b3;"/>
</svg>